<?xml version="1.0" standalone="no"?>
<!DOCTYPE svg PUBLIC "-//W3C//DTD SVG 20010904//EN"
 "http://www.w3.org/TR/2001/REC-SVG-20010904/DTD/svg10.dtd">
<svg version="1.0" xmlns="http://www.w3.org/2000/svg"
 width="360.000000pt" height="360.000000pt" viewBox="0 0 360.000000 360.000000"
 preserveAspectRatio="xMidYMid meet">
<metadata>
Created by potrace 1.11, written by Peter Selinger 2001-2013
</metadata>
<g transform="translate(0.000000,360.000000) scale(0.100000,-0.100000)"
fill="#000000" stroke="none">
<path d="M835 3053 c-232 -47 -402 -169 -508 -363 -55 -100 -80 -205 -80 -330
0 -97 7 -135 42 -248 9 -30 8 -33 -19 -47 -55 -29 -157 -143 -198 -223 -55
-108 -67 -159 -67 -287 1 -135 26 -223 95 -330 119 -181 310 -279 531 -271
l98 3 16 -40 c67 -167 261 -322 455 -363 73 -15 199 -15 275 1 159 33 334 162
413 305 19 36 37 67 38 68 1 2 27 -5 56 -16 232 -87 506 -2 653 201 37 51 42
55 70 49 53 -12 228 -5 300 12 81 19 232 91 290 138 138 113 235 261 281 428
27 100 25 301 -4 403 -96 337 -380 561 -723 572 -112 3 -199 -10 -288 -44
l-50 -19 -19 32 c-51 85 -182 200 -278 241 -121 53 -281 69 -401 40 -90 -22
-200 -78 -262 -132 l-51 -44 -57 58 c-104 105 -228 174 -363 200 -35 6 -221
12 -245 6z"/>
</g>
</svg>
